<svg width="54" height="51" viewBox="0 0 54 51" fill="none" xmlns="http://www.w3.org/2000/svg">
<path d="M27 10.1062C25.35 10.1062 23.9375 9.61143 22.7625 8.62186C21.5875 7.63229 21 6.44271 21 5.0531C21 3.6635 21.5875 2.47392 22.7625 1.48435C23.9375 0.494783 25.35 0 27 0C28.65 0 30.0625 0.494783 31.2375 1.48435C32.4125 2.47392 33 3.6635 33 5.0531C33 6.44271 32.4125 7.63229 31.2375 8.62186C30.0625 9.61143 28.65 10.1062 27 10.1062ZM18 50.531V17.6859C15 17.4753 11.95 17.1595 8.85 16.7384C5.75 16.3173 2.8 15.791 0 15.1593L1.5 10.1062C5.4 10.9905 9.55 11.6327 13.95 12.0327C18.35 12.4327 22.7 12.6328 27 12.6328C31.3 12.6328 35.65 12.4327 40.05 12.0327C44.45 11.6327 48.6 10.9905 52.5 10.1062L54 15.1593C51.2 15.791 48.25 16.3173 45.15 16.7384C42.05 17.1595 39 17.4753 36 17.6859V50.531H30V35.3717H24V50.531H18Z" fill="#E3E3E3"/>
</svg>
