<svg width="598" height="757" viewBox="0 0 598 757" fill="none" xmlns="http://www.w3.org/2000/svg">
<path d="M299 756.164C464.133 756.164 598 743.992 598 728.977C598 713.963 464.133 701.791 299 701.791C133.867 701.791 0 713.963 0 728.977C0 743.992 133.867 756.164 299 756.164Z" fill="#DBE6F7"/>
<path d="M244.852 80.5002C244.852 82.5099 244.061 84.3409 242.771 85.6666C241.497 87 239.726 87.8204 237.782 87.8204H86.4499C82.5627 87.8204 79.3779 84.5273 79.3779 80.5002C79.3779 78.4906 80.1695 76.6596 81.4609 75.3339C82.7337 73.9986 84.5063 73.1801 86.4499 73.1801H93.6018C96.4261 66.3922 102.95 61.6485 110.544 61.6485C115.656 61.6485 120.277 63.8003 123.625 67.2702C128.083 59.4524 136.305 54.2015 145.72 54.2015C148.308 54.2015 150.798 54.6069 153.151 55.3409C158.075 45.767 167.807 39.25 179.027 39.25C192.5 39.25 203.833 48.6547 207.253 61.4544C209.736 60.171 212.536 59.4371 215.509 59.4371C223.911 59.4371 230.998 65.2375 233.228 73.182H237.784C241.667 73.1801 244.852 76.4732 244.852 80.5002Z" fill="#7C84A4"/>
<path d="M547.519 98.8791C547.519 100.889 546.728 102.722 545.436 104.045C544.162 105.381 542.391 106.199 540.447 106.199H389.115C385.228 106.199 382.045 102.906 382.045 98.8791C382.045 96.8694 382.836 95.0384 384.128 93.7127C385.401 92.3774 387.173 91.559 389.117 91.559H396.271C399.095 84.771 405.619 80.0254 413.213 80.0254C418.325 80.0254 422.946 82.1773 426.294 85.6471C430.752 77.8294 438.974 72.5785 448.389 72.5785C450.977 72.5785 453.467 72.9839 455.82 73.7178C460.744 64.144 470.476 57.625 481.696 57.625C495.169 57.625 506.501 67.0317 509.922 79.8294C512.405 78.546 515.205 77.8121 518.178 77.8121C526.58 77.8121 533.667 83.6125 535.897 91.557H540.453C544.334 91.559 547.519 94.8521 547.519 98.8791Z" fill="#7C84A4"/>
<path d="M63.0589 271.291C69.1963 292.623 89.8009 291.958 89.3624 309.276C88.9239 326.591 99.4482 339.739 113.912 336.567C128.381 333.391 138.855 330.219 145.457 347.445C152.053 364.671 173.098 373.283 181.426 359.682C183.502 356.298 185.743 352.631 187.934 349.03C188.532 348.046 189.13 347.068 189.717 346.104C189.855 345.881 189.992 345.658 190.126 345.435C198.945 330.958 196.033 311.774 183.032 301.192C177.768 296.909 171.472 294.502 164.332 296.675C141.973 303.472 150.03 280.221 136.709 270.384C121.367 259.048 108.206 271.878 97.6942 262.222C83.0708 248.794 56.9234 249.958 63.0589 271.291Z" fill="#7C84A4"/>
<path d="M89.7348 280.513L187.934 349.032C188.533 348.048 189.131 347.07 189.718 346.106L91.6078 277.648C90.8422 277.114 89.8017 277.321 89.287 278.113C88.7686 278.902 88.9693 279.978 89.7348 280.513Z" fill="#82A1C6"/>
<path d="M548.851 168.534C571.971 158.574 592.089 144.737 580.927 136.447C569.757 128.147 535.575 152.635 519.755 181.484L512.103 189.966C523.987 169.151 527.466 139.077 517.185 133.367C506.969 127.691 506.412 147.926 508.883 166.498C510.765 180.633 508.862 190.333 507.426 195.152L471.289 235.217C490.017 202.197 495.462 154.724 479.194 145.688C462.984 136.683 462.099 168.792 466.02 198.257C468.984 220.524 466.031 235.864 463.758 243.565L456.553 251.553C457.695 253.062 458.847 254.564 460.009 256.059L503 208.393C508.145 207.047 515.579 205.94 525.264 206.612C543.353 207.869 562.835 205.884 556.649 195.742C551.281 186.94 529.146 189.953 510.806 199.74L525.673 183.255C531.115 178.969 538.871 172.832 548.851 168.534Z" fill="#738AAE"/>
<path d="M89.036 185.183C86.6186 205.812 104.505 213.165 97.901 227.829C91.2991 242.488 95.5821 257.795 109.111 260.639C122.644 263.482 132.756 264.792 132.213 282.082C131.667 299.372 146.591 314.838 158.615 306.392C161.61 304.292 164.847 302.012 168.019 299.774C168.885 299.161 169.749 298.553 170.598 297.952C170.797 297.814 170.994 297.675 171.189 297.537C183.947 288.53 188.352 270.981 181.024 256.919C178.056 251.228 173.53 246.744 166.635 245.86C145.041 243.086 160.304 226.269 152.435 212.723C143.373 197.119 127.488 203.044 121.958 190.732C114.264 173.612 91.4515 164.555 89.036 185.183Z" fill="#738AAE"/>
<path d="M108.563 203.338L168.019 299.775C168.884 299.162 169.748 298.555 170.598 297.954L111.197 201.605C110.735 200.853 109.769 200.631 109.042 201.111C108.314 201.587 108.1 202.586 108.563 203.338Z" fill="#7C84A4"/>
<path d="M568.264 601.191C561.978 623.042 540.871 622.362 541.321 640.103C541.771 657.839 530.99 671.307 516.173 668.056C501.353 664.803 490.622 661.552 483.861 679.198C477.103 696.843 455.549 705.664 447.016 691.732C444.889 688.266 442.596 684.508 440.349 680.823C439.736 679.816 439.125 678.813 438.523 677.826C438.381 677.597 438.24 677.369 438.105 677.142C429.072 662.313 432.055 642.66 445.372 631.822C450.764 627.436 457.212 624.969 464.525 627.196C487.428 634.161 479.175 610.34 492.819 600.265C508.533 588.655 522.013 601.796 532.783 591.903C547.765 578.147 574.55 579.338 568.264 601.191Z" fill="#7C84A4"/>
<path d="M540.94 610.636L440.351 680.821C439.738 679.814 439.126 678.811 438.524 677.824L539.021 607.702C539.805 607.155 540.869 607.368 541.399 608.179C541.928 608.987 541.724 610.09 540.94 610.636Z" fill="#82A1C6"/>
<path d="M531.781 520.506C534.256 541.637 515.937 549.168 522.7 564.189C529.464 579.206 525.075 594.884 511.217 597.796C497.356 600.709 486.997 602.052 487.552 619.762C488.112 637.473 472.823 653.314 460.507 644.664C457.44 642.514 454.123 640.178 450.875 637.884C449.989 637.258 449.102 636.633 448.233 636.019C448.03 635.876 447.828 635.736 447.627 635.594C434.559 626.368 430.046 608.392 437.552 593.988C440.592 588.159 445.228 583.565 452.291 582.66C474.408 579.819 458.774 562.594 466.836 548.719C476.119 532.733 492.389 538.803 498.054 526.193C505.94 508.654 529.306 499.376 531.781 520.506Z" fill="#738AAE"/>
<path d="M511.778 539.103L450.877 637.886C449.99 637.26 449.104 636.635 448.234 636.021L509.08 537.327C509.554 536.557 510.544 536.33 511.288 536.82C512.033 537.31 512.254 538.332 511.778 539.103Z" fill="#7C84A4"/>
<path d="M161.604 206.543V702.074C161.604 717.608 173.779 730.196 188.802 730.196H427.451C434.998 730.196 441.821 727.02 446.753 721.893C451.632 716.805 454.648 709.806 454.648 702.074V206.543C454.648 191.009 442.473 178.421 427.451 178.421H188.802C184.361 178.421 180.169 179.52 176.466 181.474C167.642 186.121 161.604 195.601 161.604 206.543Z" fill="#3B3E7D"/>
<path d="M171.738 206.543V702.074C171.738 717.608 183.913 730.196 198.936 730.196H437.584C445.132 730.196 451.955 727.02 456.885 721.893C461.764 716.805 464.782 709.806 464.782 702.074V206.543C464.782 191.009 452.607 178.421 437.584 178.421H198.936C194.495 178.421 190.303 179.52 186.599 181.474C177.775 186.121 171.738 195.601 171.738 206.543Z" fill="#18285D"/>
<path d="M166.582 300.293H163.494C159.611 300.293 156.463 297.038 156.463 293.023V262.81C156.463 258.795 159.611 255.54 163.494 255.54H166.582V300.293Z" fill="#18285D"/>
<path d="M166.582 358.821H163.494C159.611 358.821 156.463 355.566 156.463 351.551V321.339C156.463 317.323 159.611 314.068 163.494 314.068H166.582V358.821Z" fill="#18285D"/>
<path d="M464.781 300.293H467.201C470.244 300.293 472.71 297.741 472.71 294.596V261.237C472.71 258.092 470.244 255.54 467.201 255.54H464.781V300.293Z" fill="#18285D"/>
<path d="M451.209 204.839V703.771C451.209 705.49 450.871 707.127 450.258 708.616C448.428 713.06 444.182 716.157 439.23 716.157H197.289C190.68 716.157 185.31 710.624 185.31 703.769V204.839C185.31 204.147 185.36 203.465 185.471 202.802C186.146 198.589 188.89 195.088 192.582 193.436C193.353 193.1 194.156 192.84 194.994 192.677C195.734 192.523 196.505 192.446 197.289 192.446H439.23C445.845 192.446 451.209 197.999 451.209 204.839Z" fill="white"/>
<path d="M451.21 204.839V230.421H185.311V204.839C185.311 204.147 185.361 203.465 185.472 202.802C186.147 198.589 188.891 195.088 192.583 193.436C193.354 193.1 194.157 192.84 194.995 192.677C195.735 192.523 196.506 192.446 197.29 192.446H439.231C445.846 192.446 451.21 197.999 451.21 204.839Z" fill="#DBE6F7"/>
<path d="M409.227 192.434L396.89 211.844C393.448 217.259 387.603 220.521 381.335 220.521H262.098C255.831 220.521 249.985 217.261 246.544 211.844L234.206 192.434C234.206 190.422 235.797 188.773 237.748 188.773H405.688C407.633 188.773 409.227 190.424 409.227 192.434Z" fill="#18285D"/>
<path opacity="0.3" d="M364.021 206.466H260.504C258.8 206.466 257.404 205.024 257.404 203.262V201.865C257.404 200.103 258.8 198.66 260.504 198.66H364.021C365.725 198.66 367.12 200.103 367.12 201.865V203.262C367.122 205.025 365.727 206.466 364.021 206.466Z" fill="#DBE6F7"/>
<path opacity="0.3" d="M387.148 202.304C387.148 204.89 385.121 206.988 382.618 206.988C380.115 206.988 378.088 204.892 378.088 202.304C378.088 199.718 380.115 197.62 382.618 197.62C385.121 197.62 387.148 199.716 387.148 202.304Z" fill="#DBE6F7"/>
<path d="M208.038 537.724C208.038 540.011 209.829 541.863 212.04 541.863H307.698C309.907 541.863 311.7 540.011 311.7 537.724C311.7 535.44 309.909 533.586 307.698 533.586H212.04C209.829 533.588 208.038 535.44 208.038 537.724Z" fill="#DBE6F7"/>
<path d="M329.369 537.724C329.369 540.011 331.16 541.863 333.372 541.863H429.031C431.24 541.863 433.033 540.011 433.033 537.724C433.033 535.44 431.242 533.586 429.031 533.586H333.372C331.16 533.588 329.369 535.44 329.369 537.724Z" fill="#DBE6F7"/>
<path d="M208.038 560.795C208.038 563.081 209.829 564.933 212.04 564.933H307.698C309.907 564.933 311.7 563.081 311.7 560.795C311.7 558.51 309.909 556.656 307.698 556.656H212.04C209.829 556.658 208.038 558.51 208.038 560.795Z" fill="#DBE6F7"/>
<path d="M329.369 560.795C329.369 563.081 331.16 564.933 333.372 564.933H429.031C431.24 564.933 433.033 563.081 433.033 560.795C433.033 558.51 431.242 556.656 429.031 556.656H333.372C331.16 556.658 329.369 558.51 329.369 560.795Z" fill="#DBE6F7"/>
<path d="M208.038 583.867C208.038 586.151 209.829 588.005 212.04 588.005H307.698C309.907 588.005 311.7 586.153 311.7 583.867C311.7 581.583 309.909 579.729 307.698 579.729H212.04C209.829 579.73 208.038 581.583 208.038 583.867Z" fill="#DBE6F7"/>
<path d="M329.369 583.867C329.369 586.151 331.16 588.005 333.372 588.005H429.031C431.24 588.005 433.033 586.153 433.033 583.867C433.033 581.583 431.242 579.729 429.031 579.729H333.372C331.16 579.73 329.369 581.583 329.369 583.867Z" fill="#DBE6F7"/>
<path d="M208.038 606.937C208.038 609.222 209.829 611.076 212.04 611.076H307.698C309.907 611.076 311.7 609.224 311.7 606.937C311.7 604.653 309.909 602.799 307.698 602.799H212.04C209.829 602.799 208.038 604.653 208.038 606.937Z" fill="#DBE6F7"/>
<path d="M329.369 606.937C329.369 609.222 331.16 611.076 333.372 611.076H429.031C431.24 611.076 433.033 609.224 433.033 606.937C433.033 604.653 431.242 602.799 429.031 602.799H333.372C331.16 602.799 329.369 604.653 329.369 606.937Z" fill="#DBE6F7"/>
<path d="M269.241 660.732H214.874C211.119 660.732 208.077 657.585 208.077 653.704V646.832C208.077 642.949 211.121 639.802 214.874 639.802H269.239C272.994 639.802 276.038 642.949 276.038 646.832V653.704C276.038 657.585 272.994 660.732 269.241 660.732Z" fill="#DBE6F7"/>
<path d="M348.345 660.732H293.981C290.225 660.732 287.182 657.585 287.182 653.704V646.832C287.182 642.949 290.225 639.802 293.981 639.802H348.345C352.1 639.802 355.142 642.949 355.142 646.832V653.704C355.144 657.585 352.1 660.732 348.345 660.732Z" fill="#DBE6F7"/>
<path d="M426.235 660.732H371.868C368.115 660.732 365.071 657.585 365.071 653.704V646.832C365.071 642.949 368.115 639.802 371.868 639.802H426.235C429.988 639.802 433.032 642.949 433.032 646.832V653.704C433.032 657.585 429.988 660.732 426.235 660.732Z" fill="#DBE6F7"/>
<path d="M451.21 304.804V493.208H222.346V304.804H232.87L232.773 304.698L232.889 304.804H451.21Z" fill="#DBE6F7"/>
<path d="M498.887 290.246H235.107V478.652H498.887V290.246Z" fill="#3B487D"/>
<path d="M509.448 290.246H245.668V478.652H509.448V290.246Z" fill="#7C84A4"/>
<path d="M245.535 290.139L367.675 421.6C373.032 427.365 381.952 427.365 387.309 421.6L509.449 290.139L386.544 403.247C381.384 407.995 373.602 407.995 368.442 403.247L245.535 290.139Z" fill="#313239"/>
<path d="M352.145 387.75L253.309 478.652H245.668V473.849L346.463 381.148L352.145 387.75Z" fill="#313239"/>
<path d="M509.448 474.487V478.652H501.116L402.277 387.75L407.959 381.148L509.448 474.487Z" fill="#313239"/>
<path d="M245.661 290.244L368.858 403.537C373.815 408.097 381.289 408.097 386.246 403.537L509.443 290.244H245.661Z" fill="#727FB4"/>
<g opacity="0.5">
<path d="M374.364 307.883H283.062C280.024 307.883 277.562 305.337 277.562 302.196C277.562 299.055 280.024 296.509 283.062 296.509H374.364C377.402 296.509 379.864 299.055 379.864 302.196C379.864 305.337 377.402 307.883 374.364 307.883Z" fill="#3A487D"/>
</g>
<g opacity="0.5">
<path d="M402.304 307.883H393.064C390.025 307.883 387.563 305.337 387.563 302.196C387.563 299.055 390.025 296.509 393.064 296.509H402.304C405.342 296.509 407.804 299.055 407.804 302.196C407.804 305.337 405.342 307.883 402.304 307.883Z" fill="#3A487D"/>
</g>
<path d="M468.061 306.114H440.23C432.853 306.114 426.874 299.931 426.874 292.303V263.526C426.874 255.901 432.853 249.718 440.228 249.718H468.061C475.438 249.718 481.415 255.901 481.415 263.526V292.303C481.415 299.933 475.436 306.114 468.061 306.114Z" fill="#3A487D"/>
<path d="M472.882 306.114H445.051C437.675 306.114 431.695 299.931 431.695 292.303V263.526C431.695 255.901 437.675 249.718 445.05 249.718H472.88C480.257 249.718 486.237 255.901 486.237 263.526V292.303C486.237 299.933 480.257 306.114 472.882 306.114Z" fill="#4C5B94"/>
<path d="M456.596 277.182L455.524 266.889H461.958L460.886 277.182H456.596ZM458.741 283.807C457.82 283.807 457.065 283.529 456.477 282.973C455.89 282.401 455.596 281.726 455.596 280.947C455.596 280.153 455.89 279.486 456.477 278.946C457.065 278.406 457.82 278.136 458.741 278.136C459.678 278.136 460.433 278.406 461.005 278.946C461.592 279.486 461.886 280.153 461.886 280.947C461.886 281.726 461.592 282.401 461.005 282.973C460.433 283.529 459.678 283.807 458.741 283.807Z" fill="white"/>
<path d="M351.337 55.6284L351.365 55.5458C351.796 54.5601 352.19 53.5611 352.543 52.5639C357.732 37.9198 358.243 7.86109 325.97 0.750364C325.97 0.750364 299.371 -5.67446 287.54 19.0757C287.54 19.0757 282.213 30.542 278.428 38.8708C278.428 38.8708 275.252 56.3719 259.282 57.9166C243.311 59.4614 234.406 65.8017 235.94 78.0326C237.475 90.2636 235.019 88.3173 223.963 98.6597C212.907 109.002 205.194 128.344 214.732 141.074C224.27 153.805 259.955 123.685 282.806 137.143C305.657 150.602 344.029 146.667 348.49 127.516C352.951 108.366 335.078 95.7451 336.03 86.0175C336.983 76.2919 348.44 64.9351 351.337 55.6284Z" fill="#29245D"/>
<path d="M360.014 178.401L337.215 178.42L326.196 156.267L324.951 153.731L320.25 144.298C320.25 144.298 321.194 104.143 331.153 98.667L360.014 178.401Z" fill="#7C84A4"/>
<path d="M326.195 156.268L324.95 153.732C327.143 149.14 330.933 138.573 327.923 124.97C327.793 124.336 328.165 123.721 328.759 123.586C329.354 123.452 329.967 123.836 330.097 124.451C333.665 140.59 328.313 152.444 326.195 156.268Z" fill="#18247A"/>
<path d="M365.611 175.614C365.611 175.614 367.575 184.369 370.922 186.781C374.268 189.192 373.423 176.949 373.423 176.949C373.423 176.949 374.549 191.724 378.012 192.12C381.476 192.516 380.779 178.131 380.779 178.131C380.779 178.131 383.016 188.022 385.64 188.598C388.265 189.176 388.173 178.64 388.173 178.64C388.173 178.64 390.714 186.293 392.656 186.957C394.6 187.622 395.54 178.732 394.449 174.204C393.357 169.675 387.905 172.425 387.905 172.425C387.905 172.425 382.752 170.886 380.965 172.721C380.965 172.721 376.346 170.646 373.759 171.989C373.759 171.992 366.215 169.741 365.611 175.614Z" fill="#FDA893"/>
<path d="M327.232 117.882C328.106 125.625 330.484 133.444 327.307 145.76C326.303 149.66 324.742 152.773 321.807 158.114V158.133C321.788 158.133 321.788 158.133 321.788 158.133C321.658 158.44 321.491 158.729 321.305 159.036C321.249 159.593 321.175 160.131 321.119 160.669C319.205 174.387 319.707 167.105 319.93 178.422H251.254L251.756 150.313L251.867 144.319L252.852 89.1392L274.536 87.1603H274.555L278.289 86.8144L278.512 86.776L284.347 86.2572C284.867 86.1996 285.369 86.1612 285.889 86.1228C293.749 85.6232 301.627 86.8913 309.004 89.8309L309.246 89.9269L312.497 91.2142V91.2334L312.702 91.3103L315.879 92.5783L331.153 98.6688C330.372 102.223 327.938 114.308 327.232 117.882Z" fill="#7C84A4"/>
<path d="M260.415 129.89L251.756 150.313L251.867 144.318L258.371 128.967C258.612 128.391 259.281 128.122 259.839 128.372C260.396 128.621 260.656 129.313 260.415 129.89Z" fill="#18247A"/>
<path d="M274.547 87.1478C281.63 101.907 298.972 118.4 307.857 113.31C313.324 110.186 315.557 99.9226 315.879 92.5678L312.694 91.3036L312.501 91.2287V91.2229L309.251 89.928L309.002 89.828C301.634 86.8923 293.754 85.6281 285.891 86.1295C285.623 86.168 285.352 86.2045 285.084 86.2429C284.837 86.2737 284.594 86.3063 284.352 86.337L278.51 86.7886L278.285 86.8078L274.547 87.1478Z" fill="#FDA893"/>
<path d="M321.317 159.044C321.252 159.59 321.18 160.132 321.124 160.672C317.361 161.502 305.551 163.218 285.474 158.247C282.871 157.602 280.126 156.845 277.244 155.955C276.652 155.776 276.319 155.133 276.492 154.52C276.67 153.917 277.295 153.565 277.878 153.749C306.84 162.645 321.626 158.18 321.774 158.138C321.791 158.134 321.8 158.128 321.815 158.124C321.652 158.422 321.49 158.729 321.317 159.044Z" fill="#18247A"/>
<path d="M340.291 53.4616C340.291 53.4616 346.681 49.3231 348.307 55.2964C349.933 61.2717 340.443 73.6391 333.62 67.2431L340.291 53.4616Z" fill="#FD857D"/>
<path d="M337.546 67.5895C337.258 68.4252 337.678 69.3436 338.486 69.6433C339.294 69.9411 340.183 69.5069 340.472 68.6712C340.76 67.8354 340.34 66.9151 339.532 66.6173C338.724 66.3195 337.834 66.7537 337.546 67.5895Z" fill="white"/>
<path d="M336.875 63.5416C337.171 63.6511 337.509 63.5589 337.694 63.2957C340.437 59.4089 345.629 59.3397 345.681 59.3397C346.075 59.3378 346.383 59.0189 346.368 58.6269C346.355 58.235 346.024 57.918 345.63 57.918C345.389 57.918 339.673 57.9794 336.515 62.4561C336.292 62.7731 336.375 63.2169 336.7 63.4494C336.754 63.4878 336.814 63.5186 336.875 63.5416Z" fill="#F05B56"/>
<path d="M342.255 63.0597C342.382 63.1058 342.519 63.1193 342.658 63.0885C343.041 63.0059 343.274 62.6274 343.179 62.2431C343.164 62.1797 342.772 60.6638 341.334 59.294C341.046 59.0173 340.592 59.0192 340.323 59.2997C340.053 59.5783 340.072 60.0279 340.36 60.3046C341.471 61.3651 341.787 62.5333 341.791 62.5448C341.852 62.7888 342.032 62.9771 342.255 63.0597Z" fill="#F05B56"/>
<path d="M296.207 70.3809L290.242 87.6495C290.242 87.6495 295.865 96.7084 301.735 99.4847C307.595 102.265 312.237 95.6555 312.237 95.6555L317.789 79.5839L296.207 70.3809Z" fill="#FDA893"/>
<path d="M295.619 72.0713L293.239 78.9591C295.692 85.1227 302.335 89.4379 313.576 91.7531L317.2 81.2724L295.619 72.0713Z" fill="#FD857D"/>
<path d="M340.669 61.0025C339.899 62.5991 339.086 64.2111 338.212 65.7942C332.415 76.3133 321.355 85.9063 311.979 84.7382C291.731 82.2155 289.21 64.1323 290.091 51.8052C290.191 50.4354 291.304 49.2384 291.551 47.6649C292.138 43.9395 292.144 39.4609 293.188 35.43C293.913 32.6365 294.686 29.9025 295.411 27.4413C297.464 20.5054 303.452 15.6464 310.274 15.4024C320.107 15.0412 334.148 17.0663 343.939 29.1512C347.555 33.6144 348.651 39.8106 346.812 45.4688C345.405 49.7898 343.361 55.3673 340.669 61.0025Z" fill="#FDA893"/>
<path d="M314.809 61.2501C314.459 61.1214 314.242 60.7468 314.309 60.3587C314.385 59.9245 314.785 59.6343 315.205 59.7131L317.852 60.2011L317.685 49.4515C317.678 49.0115 318.018 48.6464 318.445 48.6387C318.871 48.633 319.224 48.9827 319.229 49.4246L319.426 62.1128L314.931 61.2828C314.891 61.277 314.848 61.2655 314.809 61.2501Z" fill="#FD857D"/>
<path d="M339.99 39.4228C346.118 45.5806 340.687 53.7135 341.601 59.1392C341.659 59.4908 341.809 59.6061 342.036 59.5196C344.804 53.7845 346.891 48.1013 348.322 43.6958C350.193 37.9242 348.974 31.5743 345.129 26.9651C334.72 14.4882 319.95 12.2557 309.627 12.5131C302.465 12.6841 296.228 17.5873 294.145 24.6615C293.409 27.1707 292.627 29.9604 291.895 32.8097C292.851 34.0067 295.702 35.4438 295.128 37.5092C293.611 42.9715 292.601 46.7199 293.79 46.8006C295.795 46.9313 299.16 40.8792 298.524 35.928C298.524 35.928 301.17 33.73 308.93 33.5302C318.884 33.2747 329.088 31.2247 329.088 31.2247C329.088 31.2247 333.124 30.3831 335.179 28.5982C335.183 28.6002 335.322 34.733 339.99 39.4228Z" fill="#29245D"/>
<path d="M328.135 52.4125C327.562 54.0705 327.925 55.719 328.943 56.0956C329.961 56.4722 331.253 55.4327 331.825 53.7766C332.397 52.1204 332.035 50.4719 331.017 50.0954C329.997 49.7169 328.707 50.7563 328.135 52.4125Z" fill="#29245D"/>
<path d="M307.111 44.635C306.539 46.2931 306.901 47.9415 307.92 48.3181C308.938 48.6947 310.229 47.6553 310.802 45.9991C311.374 44.341 311.011 42.6926 309.993 42.3179C308.975 41.9433 307.684 42.9769 307.111 44.635Z" fill="#29245D"/>
<path d="M337.195 45.7712C335.815 44.9239 332.987 43.3235 329.752 42.2591C328.901 41.9785 328.001 42.3859 327.877 43.1198L327.873 43.139C327.775 43.725 328.219 44.3091 328.908 44.5051C331.145 45.1391 336.827 47.2794 339.196 49.0739C339.406 48.705 339.297 48.1882 339.05 47.681C338.678 46.9125 338.002 46.265 337.195 45.7712Z" fill="#29245D"/>
<path d="M307.413 35.1763C309.003 35.403 312.181 35.9717 315.353 37.2244C316.187 37.5529 316.646 38.4502 316.3 39.1053L316.291 39.1207C316.014 39.6433 315.315 39.8124 314.658 39.5222C312.526 38.5789 306.792 36.5923 303.856 36.4712C303.914 36.0466 304.312 35.7142 304.812 35.476C305.566 35.1148 306.484 35.0437 307.413 35.1763Z" fill="#29245D"/>
<path d="M321.33 68.7074C319.881 71.1455 316.412 75.3358 310.375 73.1052C304.323 70.8708 304.158 65.8081 304.63 62.5381L321.33 68.7074Z" fill="white"/>
<path d="M308.893 77.6702C310.636 78.3138 312.509 77.9123 312.589 77.895C312.998 77.8047 313.258 77.3877 313.17 76.965C313.083 76.5424 312.682 76.2734 312.273 76.3618C312.258 76.3656 310.731 76.6865 309.402 76.1946C307.964 75.6643 306.948 74.4001 306.938 74.3867C306.673 74.0524 306.197 74.0024 305.872 74.2772C305.548 74.55 305.5 75.0418 305.764 75.3761C305.816 75.4434 307.048 76.9881 308.893 77.6702Z" fill="#FD857D"/>
<path d="M295.194 36.7512C295.194 36.7512 292.296 28.4435 287.678 31.9556C283.061 35.4678 282.607 50.7133 291.149 50.1081L295.194 36.7512Z" fill="#FDA893"/>
<path d="M286.398 48.6977C286.11 49.5334 286.53 50.4518 287.339 50.7515C288.147 51.0493 289.037 50.6151 289.325 49.7793C289.613 48.9436 289.193 48.0233 288.385 47.7255C287.575 47.4258 286.686 47.8619 286.398 48.6977Z" fill="white"/>
<path d="M290.993 45.2881C290.72 45.1882 290.534 44.9077 290.555 44.5945C290.867 39.9507 287.231 36.6788 287.194 36.6461C286.917 36.4002 286.883 35.9679 287.119 35.6797C287.357 35.3915 287.775 35.3569 288.054 35.6009C288.225 35.7508 292.238 39.3417 291.88 44.6887C291.854 45.0671 291.538 45.3515 291.172 45.3246C291.109 45.3208 291.049 45.3073 290.993 45.2881Z" fill="#FD857D"/>
<path d="M287.461 41.5847C287.346 41.5424 287.24 41.4656 287.158 41.358C286.935 41.0582 286.989 40.6279 287.279 40.3954C287.327 40.357 288.483 39.454 290.298 39.3079C290.662 39.2772 290.982 39.5615 291.01 39.9381C291.038 40.3147 290.765 40.6452 290.4 40.6759C288.998 40.7893 288.096 41.4771 288.087 41.4848C287.903 41.6289 287.667 41.6596 287.461 41.5847Z" fill="#FD857D"/>
<path d="M317.686 45.9349C317.842 45.4873 317.896 45.0223 317.858 44.5727C317.766 43.3393 317.006 42.2153 315.815 41.7446L305.299 37.5869C304.473 37.2603 303.599 37.3121 302.85 37.658C302.44 37.8482 302.072 38.1249 301.769 38.4803C301.514 38.7723 301.308 39.1124 301.165 39.4967L300.65 40.8858C299.779 43.2413 299.84 45.8427 300.818 48.033C301.795 50.2079 303.269 51.7219 305.205 52.5365L305.482 52.646C307.732 53.5356 310.181 53.4703 312.39 52.4577C314.633 51.4318 316.348 49.5623 317.223 47.1934L317.658 46.0175C317.669 45.9926 317.68 45.9618 317.686 45.9349ZM315.985 46.7034C315.237 48.7304 313.769 50.3251 311.857 51.2012C309.967 52.0658 307.877 52.1215 305.957 51.3626L305.704 51.2627C304.094 50.5826 302.856 49.303 302.027 47.4566C301.197 45.6045 301.148 43.3854 301.892 41.3757L302.406 39.9866C302.776 38.9856 303.858 38.488 304.824 38.8703L315.339 43.028C316.301 43.4084 316.79 44.5285 316.418 45.5276L315.985 46.7034Z" fill="white"/>
<path d="M340.147 53.9567C340.195 53.4898 340.138 53.021 339.997 52.5829C339.697 51.6857 339.032 50.9229 338.111 50.5579L327.592 46.3983C326.373 45.916 325.042 46.258 324.175 47.1649C323.883 47.4665 323.643 47.8316 323.485 48.2485C323.472 48.2677 323.467 48.285 323.459 48.3061L322.945 49.6952C322.073 52.0507 322.138 54.6541 323.116 56.8444C324.089 59.0174 325.566 60.5333 327.499 61.346L327.779 61.4574C330.03 62.347 332.479 62.2817 334.688 61.2691C336.925 60.2432 338.646 58.3737 339.521 56.0048L339.956 54.8289C340.062 54.5465 340.127 54.2526 340.147 53.9567ZM338.28 55.5187C337.531 57.5456 336.063 59.1403 334.147 60.0145C332.263 60.881 330.171 60.9367 328.253 60.1778L327.997 60.076C326.386 59.3939 325.148 58.1163 324.32 56.2699C323.493 54.4178 323.441 52.1987 324.184 50.189L324.699 48.7999C325.068 47.7989 326.154 47.3013 327.116 47.6836L337.635 51.8432C338.597 52.2237 339.084 53.3438 338.714 54.3428L338.28 55.5187Z" fill="white"/>
<path d="M302.851 37.657C301.993 36.6906 299.653 34.4466 295.677 33.2246V34.6733C298.958 35.7799 300.969 37.6244 301.77 38.4794C302.035 38.7599 302.169 38.9366 302.176 38.9443L303.228 38.1105C303.204 38.0759 303.08 37.9087 302.851 37.657Z" fill="white"/>
<path d="M317.224 45.8992L317.265 44.5273C317.348 44.5293 319.318 44.5984 321.23 45.3554C323.266 46.1604 324.338 47.3267 324.383 47.3747L323.415 48.3142C323.407 48.3065 322.49 47.3228 320.756 46.6369C319.059 45.9664 317.242 45.8992 317.224 45.8992Z" fill="white"/>
<path d="M344.277 52.9232C341.806 52.4083 339.567 52.6081 339.422 52.6215L339.543 53.9876C339.58 53.9857 341.878 53.7839 344.277 54.3315V52.9232Z" fill="white"/>
<path d="M307.307 178.496C307.307 178.496 307.734 187.251 305.046 189.664C302.357 192.076 299.862 179.833 299.862 179.833C299.862 179.833 302.769 194.608 299.414 195.004C296.058 195.399 292.827 181.015 292.827 181.015C292.827 181.015 293.291 190.906 290.824 191.482C288.356 192.06 285.571 181.524 285.571 181.524C285.571 181.524 285.119 189.176 283.358 189.841C281.596 190.506 278.228 181.616 278.083 177.09C277.938 172.561 284.14 175.31 284.14 175.31C284.14 175.31 288.873 173.773 291.16 175.606C291.16 175.606 295.213 173.531 298.167 174.874C298.171 174.874 305.1 172.622 307.307 178.496Z" fill="#FDA893"/>
<path d="M269.481 178.402L220.706 178.421C220.668 178.402 220.557 177.979 220.557 177.96C219.702 164.569 227.896 142.013 233.619 122.3C237.41 109.255 242.39 93.5577 252.851 89.1387C254.69 91.3866 258.091 100.647 258.332 105.374C258.89 116.786 257.496 128.852 255.452 135.192C252.498 144.299 248.8 155.385 246.106 164.492C246.106 164.492 246.106 164.511 246.087 164.569C246.032 164.819 245.846 165.722 245.846 165.741C245.92 165.76 246.403 166.029 247.258 166.529C250.435 168.354 258.741 173.176 269.481 178.402Z" fill="#7C84A4"/>
<path d="M247.26 166.527C242.15 168.986 234.922 174.174 234.848 174.232C234.644 174.385 234.421 174.443 234.216 174.443C233.863 174.443 233.51 174.27 233.287 173.943C232.934 173.425 233.064 172.714 233.566 172.349C233.882 172.118 240.85 167.123 246.09 164.567C246.034 164.817 245.848 165.72 245.848 165.739C245.922 165.759 246.405 166.028 247.26 166.527Z" fill="#18247A"/>
<path d="M284.35 86.248C284.35 86.248 288.064 103.73 301.368 104.691C314.672 105.651 315.878 91.7545 315.878 91.7545" stroke="white" stroke-width="1.2" stroke-miterlimit="10" stroke-linecap="round"/>
<path d="M110.748 736.763H64.2844C57.965 736.763 52.3646 731.764 50.4117 724.381L30.7064 649.871C29.9 646.822 31.6299 643.653 34.2313 643.406C70.1077 639.989 105.635 639.986 140.807 643.396C143.405 643.648 145.131 646.814 144.326 649.859L124.619 724.379C122.668 731.764 117.068 736.763 110.748 736.763Z" fill="#3B3E7D"/>
<path d="M140.202 648.816C140.202 650.798 116.757 652.405 87.835 652.405C58.9135 652.405 35.4678 650.798 35.4678 648.816C35.4678 646.833 58.9135 645.227 87.835 645.227C116.757 645.227 140.202 646.835 140.202 648.816Z" fill="#18285D"/>
<path d="M147.141 548.117C128.296 542.983 99.5029 583.428 90.7586 622.861V565.408C95.1549 557.349 103.535 545.221 118.751 532.408C142.414 512.481 164.197 486.908 145.318 481.767C127.627 476.948 101.168 512.302 90.7586 549.275V475.496C93.8078 470.602 98.8024 464.181 106.787 457.457C121.7 444.897 135.428 428.781 123.53 425.54C113.205 422.727 98.1409 441.627 90.7586 462.942V439.029C91.9794 431.632 93.7037 421.067 98.4363 410.266C109.405 385.239 115.33 359.453 100.869 361.372C86.3939 363.292 77.0086 407.866 84.9241 442.084V454.39C79.5765 429.348 61.2332 403.414 49.2595 406.675C37.362 409.916 51.0897 426.032 66.0029 438.591C77.3542 448.152 82.6665 457.099 84.9241 461.912V520.033C76.3489 480.403 47.3512 439.498 28.4058 444.659C9.5274 449.8 31.3101 475.375 54.9732 495.3C72.8538 510.359 81.2989 524.469 84.9241 532.145V601.842C75.758 562.936 47.5017 523.672 28.9187 528.735C10.0402 533.876 26.23 552.567 52.8233 575.171C70.8953 590.533 80.5761 606.745 84.9241 615.558V648.387C87.0331 648.998 89.0083 648.995 90.7586 648.387V635.324C94.4581 627.587 102.911 613.639 120.576 598.764C144.237 578.833 166.02 553.258 147.141 548.117Z" fill="#7C84A4"/>
</svg>
