<svg width="96" height="94" viewBox="0 0 96 94" fill="none" xmlns="http://www.w3.org/2000/svg">
<path d="M68.5714 50.439L49.6 31.8683C47.2381 29.5756 45.2381 27.0346 43.6 24.2451C41.9619 21.4557 41.1429 18.4179 41.1429 15.1317C41.1429 10.9285 42.6095 7.35569 45.5429 4.41341C48.4762 1.47114 52.0381 0 56.2286 0C58.6667 0 60.9524 0.515854 63.0857 1.54756C65.219 2.57927 67.0476 3.97398 68.5714 5.73171C70.0952 3.97398 71.9238 2.57927 74.0571 1.54756C76.1905 0.515854 78.4762 0 80.9143 0C85.1048 0 88.6667 1.47114 91.6 4.41341C94.5333 7.35569 96 10.9285 96 15.1317C96 18.4179 95.2 21.4557 93.6 24.2451C92 27.0346 90.0191 29.5756 87.6571 31.8683L68.5714 50.439ZM68.5714 37.6L81.0286 25.3341C82.4762 23.8821 83.8095 22.3346 85.0286 20.6915C86.2476 19.0484 86.8571 17.1951 86.8571 15.1317C86.8571 13.4504 86.2857 12.0366 85.1429 10.8902C84 9.7439 82.5905 9.17073 80.9143 9.17073C79.8476 9.17073 78.8381 9.38089 77.8857 9.80122C76.9333 10.2215 76.1143 10.852 75.4286 11.6927L68.5714 19.9463L61.7143 11.6927C61.0286 10.852 60.2095 10.2215 59.2571 9.80122C58.3048 9.38089 57.2952 9.17073 56.2286 9.17073C54.5524 9.17073 53.1429 9.7439 52 10.8902C50.8571 12.0366 50.2857 13.4504 50.2857 15.1317C50.2857 17.1951 50.8952 19.0484 52.1143 20.6915C53.3333 22.3346 54.6667 23.8821 56.1143 25.3341L68.5714 37.6ZM27.4286 75.6585L59.2 84.3707L86.4 75.8878C86.0191 75.2 85.4667 74.6077 84.7429 74.111C84.0191 73.6142 83.2 73.3659 82.2857 73.3659H59.2C57.1429 73.3659 55.5048 73.2894 54.2857 73.1366C53.0667 72.9837 51.8095 72.678 50.5143 72.2195L39.8857 68.6659L42.4 59.7244L51.6571 62.8195C52.9524 63.2016 54.4762 63.5073 56.2286 63.7366C57.981 63.9659 60.5714 64.1187 64 64.1951C64 63.3545 63.7524 62.552 63.2571 61.7878C62.7619 61.0236 62.1714 60.5268 61.4857 60.2976L34.7429 50.439H27.4286V75.6585ZM0 91.7073V41.2683H34.7429C35.2762 41.2683 35.8095 41.3256 36.3429 41.4402C36.8762 41.5549 37.3714 41.6886 37.8286 41.8415L64.6857 51.8146C67.2 52.7317 69.2381 54.3366 70.8 56.6293C72.3619 58.922 73.1429 61.4439 73.1429 64.1951H82.2857C86.0952 64.1951 89.3333 65.4561 92 67.9781C94.6667 70.5 96 73.8244 96 77.9512V82.5366L59.4286 94L27.4286 85.0585V91.7073H0ZM9.14286 82.5366H18.2857V50.439H9.14286V82.5366Z" fill="black"/>
</svg>
