<svg width="540" height="447" viewBox="0 0 540 447" fill="none" xmlns="http://www.w3.org/2000/svg">
<mask id="path-1-inside-1_147_4910" fill="white">
<rect x="296" y="255" width="89.4514" height="112" rx="10"/>
</mask>
<rect x="296" y="255" width="89.4514" height="112" rx="10" stroke="white" stroke-width="44" mask="url(#path-1-inside-1_147_4910)"/>
<mask id="path-2-inside-2_147_4910" fill="white">
<rect x="384.41" y="255" width="89.4514" height="112" rx="10"/>
</mask>
<rect x="384.41" y="255" width="89.4514" height="112" rx="10" stroke="white" stroke-width="44" mask="url(#path-2-inside-2_147_4910)"/>
<ellipse cx="271.125" cy="236.5" rx="42.1254" ry="40.5" fill="white"/>
<ellipse cx="497.875" cy="236.5" rx="42.1254" ry="40.5" fill="white"/>
<path d="M384.502 11C423.54 11 455.152 42.583 455.152 81.5C455.152 120.417 423.54 152 384.502 152C345.464 152 313.852 120.417 313.852 81.5C313.852 42.583 345.464 11 384.502 11Z" stroke="white" stroke-width="22"/>
<path d="M338.219 82C338.219 140.496 432.172 143.485 430.775 82" stroke="white" stroke-width="13"/>
<ellipse cx="294.021" cy="172.082" rx="11.1284" ry="11.8209" transform="rotate(-38.1243 294.021 172.082)" fill="#F0B468"/>
<path d="M280.863 170.472C278.621 161.932 287.66 154.838 295.423 159.046C301.802 162.504 302.55 171.365 296.842 175.844C291.134 180.324 282.705 177.49 280.863 170.472Z" fill="#F0B468"/>
<path d="M285.491 161.379C290.341 157.572 297.359 158.419 301.166 163.269L324.121 192.52C326.296 195.291 325.813 199.302 323.041 201.477C316.112 206.915 306.086 205.706 300.648 198.777L283.601 177.054C279.794 172.204 280.64 165.186 285.491 161.379Z" fill="#F0B468"/>
<path d="M301.515 168.972C305.284 166.014 310.738 166.672 313.696 170.441L321.468 180.344C317.698 183.302 312.245 182.644 309.287 178.875L301.515 168.972Z" fill="#F0B468"/>
<path d="M284.883 189.022C281.925 185.253 282.583 179.799 286.352 176.841L296.255 169.069C299.213 172.839 298.556 178.292 294.786 181.251L284.883 189.022Z" fill="#F0B468"/>
<path d="M319.103 205.196C318.559 201.385 322.343 198.415 325.915 199.849L330.25 201.589C333.821 203.024 334.501 207.787 331.473 210.163L327.799 213.046C324.771 215.422 320.306 213.63 319.763 209.819L319.103 205.196Z" fill="#F0B468"/>
<circle cx="290.815" cy="162.489" r="2.40796" transform="rotate(51.8757 290.815 162.489)" fill="white"/>
<ellipse cx="325.737" cy="173.446" rx="11.1284" ry="11.8209" transform="rotate(25.57 325.737 173.446)" fill="#ECC695"/>
<path d="M321.349 160.937C328.011 155.142 338.376 160.101 338.044 168.925C337.771 176.176 330.16 180.774 323.614 177.642C317.069 174.51 315.874 165.699 321.349 160.937Z" fill="#ECC695"/>
<path d="M331.554 161.055C337.116 163.717 339.468 170.383 336.806 175.945L320.758 209.486C319.237 212.664 315.428 214.008 312.25 212.487C304.304 208.685 300.945 199.162 304.747 191.216L316.665 166.308C319.326 160.746 325.992 158.394 331.554 161.055Z" fill="#ECC695"/>
<path d="M331.846 178.784C336.168 180.852 337.995 186.033 335.927 190.355L330.494 201.71C326.172 199.642 324.344 194.462 326.413 190.14L331.846 178.784Z" fill="#ECC695"/>
<path d="M306.505 172.763C308.573 168.441 313.754 166.613 318.076 168.681L329.431 174.115C327.363 178.437 322.183 180.264 317.861 178.196L306.505 172.763Z" fill="#ECC695"/>
<path d="M307.169 210.606C310.344 208.43 314.684 210.506 314.981 214.344L315.342 219C315.639 222.838 311.671 225.558 308.199 223.897L303.986 221.881C300.514 220.22 300.142 215.423 303.317 213.246L307.169 210.606Z" fill="#ECC695"/>
<circle cx="332.917" cy="166.319" r="2.40796" transform="rotate(115.57 332.917 166.319)" fill="white"/>
<ellipse cx="302.759" cy="185.608" rx="11.1284" ry="11.8209" transform="rotate(2.8441 302.759 185.608)" fill="#ABABAB"/>
<path d="M293.879 175.765C297.786 167.846 309.262 168.416 312.364 176.683C314.914 183.477 309.67 190.658 302.423 190.298C295.176 189.938 290.669 182.272 293.879 175.765Z" fill="#ABABAB"/>
<path d="M303.338 171.933C309.496 172.239 314.24 177.48 313.934 183.638L312.089 220.775C311.915 224.294 308.92 227.005 305.401 226.83C296.604 226.393 289.826 218.907 290.263 210.109L291.633 182.53C291.939 176.372 297.18 171.627 303.338 171.933Z" fill="#ABABAB"/>
<path d="M310.456 188.172C315.242 188.41 318.928 192.482 318.691 197.268L318.066 209.841C313.28 209.603 309.594 205.531 309.831 200.745L310.456 188.172Z" fill="#ABABAB"/>
<path d="M284.757 192.409C284.995 187.623 289.067 183.936 293.853 184.174L306.425 184.799C306.188 189.584 302.115 193.271 297.33 193.033L284.757 192.409Z" fill="#ABABAB"/>
<path d="M299.992 227.057C302.079 223.823 306.885 224.062 308.641 227.486L310.773 231.642C312.53 235.067 309.92 239.109 306.076 238.918L301.411 238.686C297.567 238.495 295.371 234.214 297.459 230.98L299.992 227.057Z" fill="#ABABAB"/>
<circle cx="306.628" cy="176.261" r="2.40796" transform="rotate(92.8441 306.628 176.261)" fill="white"/>
<ellipse cx="339.099" cy="166.243" rx="11.1284" ry="11.8209" transform="rotate(-14.7959 339.099 166.243)" fill="#F0B468"/>
<path d="M327.654 159.554C328.977 150.824 340.087 147.889 345.548 154.828C350.036 160.529 347.215 168.962 340.2 170.815C333.184 172.668 326.567 166.728 327.654 159.554Z" fill="#F0B468"/>
<path d="M335.507 153.037C341.468 151.462 347.577 155.018 349.152 160.98L358.647 196.929C359.547 200.336 357.515 203.827 354.109 204.726C345.592 206.976 336.865 201.896 334.616 193.379L327.564 166.682C325.989 160.72 329.545 154.611 335.507 153.037Z" fill="#F0B468"/>
<path d="M347.214 166.354C351.846 165.131 356.594 167.894 357.817 172.527L361.032 184.698C356.399 185.921 351.652 183.158 350.428 178.525L347.214 166.354Z" fill="#F0B468"/>
<path d="M324.005 178.18C322.781 173.548 325.545 168.8 330.177 167.577L342.348 164.362C343.572 168.994 340.808 173.742 336.176 174.966L324.005 178.18Z" fill="#F0B468"/>
<path d="M349.02 206.582C350.029 202.868 354.681 201.64 357.393 204.371L360.684 207.685C363.396 210.416 362.134 215.059 358.413 216.042L353.897 217.235C350.176 218.218 346.786 214.804 347.795 211.09L349.02 206.582Z" fill="#F0B468"/>
<circle cx="339.955" cy="156.164" r="2.40796" transform="rotate(75.2041 339.955 156.164)" fill="white"/>
<ellipse cx="459.958" cy="161.999" rx="11.1284" ry="11.8209" transform="rotate(19.8605 459.958 161.999)" fill="#F0B468"/>
<path d="M454.349 149.989C460.402 143.56 471.209 147.463 471.757 156.276C472.206 163.518 465.09 168.851 458.266 166.386C451.441 163.921 449.376 155.272 454.349 149.989Z" fill="#F0B468"/>
<path d="M464.515 149.091C470.315 151.186 473.318 157.585 471.223 163.384L458.591 198.356C457.394 201.669 453.737 203.385 450.423 202.188C442.139 199.196 437.849 190.054 440.841 181.77L450.222 155.799C452.317 150 458.716 146.997 464.515 149.091Z" fill="#F0B468"/>
<path d="M466.571 166.703C471.077 168.331 473.411 173.304 471.783 177.81L467.506 189.65C463 188.022 460.666 183.049 462.294 178.543L466.571 166.703Z" fill="#F0B468"/>
<path d="M440.756 163.233C442.384 158.726 447.356 156.393 451.863 158.02L463.702 162.297C462.075 166.804 457.102 169.137 452.595 167.509L440.756 163.233Z" fill="#F0B468"/>
<path d="M445.18 200.822C448.123 198.34 452.648 199.975 453.325 203.764L454.148 208.361C454.825 212.15 451.147 215.252 447.527 213.944L443.134 212.357C439.514 211.05 438.667 206.314 441.61 203.832L445.18 200.822Z" fill="#F0B468"/>
<circle cx="466.398" cy="154.193" r="2.40796" transform="rotate(109.861 466.398 154.193)" fill="white"/>
<ellipse cx="437.803" cy="173.352" rx="11.1284" ry="11.8209" transform="rotate(-5.70469 437.803 173.352)" fill="#ABABAB"/>
<path d="M427.56 164.939C430.246 156.527 441.679 155.385 445.976 163.099C449.507 169.438 445.389 177.319 438.169 178.041C430.949 178.762 425.353 171.851 427.56 164.939Z" fill="#ABABAB"/>
<path d="M436.344 159.744C442.48 159.131 447.95 163.608 448.563 169.743L452.259 206.742C452.609 210.248 450.051 213.374 446.545 213.724C437.78 214.599 429.965 208.204 429.09 199.439L426.345 171.963C425.732 165.827 430.209 160.357 436.344 159.744Z" fill="#ABABAB"/>
<path d="M445.797 174.753C450.565 174.276 454.816 177.755 455.292 182.523L456.543 195.049C451.776 195.525 447.524 192.046 447.048 187.279L445.797 174.753Z" fill="#ABABAB"/>
<path d="M421.011 182.754C420.535 177.986 424.013 173.735 428.781 173.259L441.307 172.008C441.783 176.775 438.305 181.027 433.537 181.503L421.011 182.754Z" fill="#ABABAB"/>
<path d="M441.227 214.761C442.81 211.253 447.598 210.775 449.844 213.9L452.57 217.693C454.816 220.818 452.837 225.204 449.007 225.586L444.359 226.05C440.529 226.433 437.721 222.526 439.305 219.018L441.227 214.761Z" fill="#ABABAB"/>
<circle cx="440.242" cy="163.535" r="2.40796" transform="rotate(84.2953 440.242 163.535)" fill="white"/>
<ellipse cx="411.458" cy="199.918" rx="11.1284" ry="11.8209" transform="rotate(-166.199 411.458 199.918)" fill="#ECC695"/>
<path d="M418.307 211.268C412.966 218.3 401.808 215.559 400.333 206.853C399.121 199.699 405.635 193.645 412.681 195.376C419.728 197.107 422.695 205.49 418.307 211.268Z" fill="#ECC695"/>
<path d="M408.291 213.233C402.303 211.763 398.642 205.716 400.112 199.728L408.982 163.619C409.823 160.198 413.278 158.105 416.699 158.946C425.253 161.047 430.484 169.685 428.383 178.239L421.796 205.055C420.325 211.043 414.279 214.704 408.291 213.233Z" fill="#ECC695"/>
<path d="M404.39 195.937C399.737 194.794 396.891 190.096 398.034 185.442L401.037 173.217C405.69 174.36 408.536 179.059 407.393 183.712L404.39 195.937Z" fill="#ECC695"/>
<path d="M430.429 196.663C429.286 201.316 424.587 204.162 419.934 203.019L407.709 200.016C408.852 195.363 413.551 192.517 418.204 193.66L430.429 196.663Z" fill="#ECC695"/>
<path d="M422.055 159.751C419.391 162.529 414.718 161.382 413.645 157.685L412.342 153.2C411.268 149.504 414.598 146.032 418.336 146.95L422.872 148.064C426.609 148.982 427.952 153.602 425.288 156.38L422.055 159.751Z" fill="#ECC695"/>
<circle cx="405.882" cy="208.359" r="2.40796" transform="rotate(-76.1994 405.882 208.359)" fill="white"/>
<ellipse cx="372.34" cy="181.603" rx="11.1284" ry="11.8209" transform="rotate(-72.4873 372.34 181.603)" fill="#ABABAB"/>
<path d="M360.568 187.7C353.897 181.916 357.355 170.958 366.138 170.05C373.355 169.304 378.975 176.196 376.791 183.115C374.608 190.035 366.051 192.453 360.568 187.7Z" fill="#ABABAB"/>
<path d="M359.258 177.582C361.113 171.702 367.384 168.44 373.264 170.295L408.723 181.484C412.083 182.544 413.948 186.127 412.887 189.487C410.237 197.888 401.278 202.548 392.878 199.898L366.545 191.588C360.665 189.733 357.402 183.462 359.258 177.582Z" fill="#ABABAB"/>
<path d="M376.768 174.806C378.21 170.237 383.083 167.702 387.653 169.143L399.657 172.931C398.216 177.501 393.342 180.036 388.773 178.594L376.768 174.806Z" fill="#ABABAB"/>
<path d="M374.36 200.743C369.79 199.301 367.255 194.428 368.697 189.859L372.485 177.854C377.054 179.296 379.589 184.169 378.148 188.738L374.36 200.743Z" fill="#ABABAB"/>
<path d="M411.736 194.78C409.137 191.941 410.584 187.353 414.342 186.521L418.902 185.511C422.66 184.679 425.91 188.227 424.752 191.897L423.346 196.351C422.188 200.022 417.491 201.062 414.891 198.224L411.736 194.78Z" fill="#ABABAB"/>
<circle cx="364.275" cy="175.494" r="2.40796" transform="rotate(17.5127 364.275 175.494)" fill="white"/>
<ellipse cx="391.808" cy="158.588" rx="11.1284" ry="11.8209" transform="rotate(-14.6825 391.808 158.588)" fill="#F0B468"/>
<path d="M380.375 151.876C381.715 143.149 392.831 140.236 398.279 147.185C402.756 152.895 399.918 161.323 392.899 163.162C385.88 165.001 379.274 159.048 380.375 151.876Z" fill="#F0B468"/>
<path d="M388.239 145.374C394.204 143.812 400.306 147.38 401.869 153.344L411.293 189.313C412.186 192.721 410.147 196.208 406.739 197.101C398.218 199.334 389.501 194.236 387.268 185.715L380.27 159.004C378.707 153.039 382.275 146.937 388.239 145.374Z" fill="#F0B468"/>
<path d="M399.916 158.715C404.551 157.501 409.293 160.274 410.508 164.909L413.698 177.086C409.063 178.3 404.321 175.527 403.107 170.892L399.916 158.715Z" fill="#F0B468"/>
<path d="M376.683 170.495C375.469 165.86 378.242 161.118 382.877 159.904L395.054 156.713C396.269 161.348 393.496 166.09 388.861 167.304L376.683 170.495Z" fill="#F0B468"/>
<path d="M401.647 198.947C402.663 195.234 407.317 194.015 410.024 196.752L413.308 200.073C416.015 202.809 414.744 207.45 411.02 208.425L406.502 209.609C402.779 210.585 399.396 207.164 400.413 203.451L401.647 198.947Z" fill="#F0B468"/>
<circle cx="392.679" cy="148.51" r="2.40796" transform="rotate(75.3175 392.679 148.51)" fill="white"/>
<rect x="269" y="181" width="218" height="159" rx="10" fill="#EB9262"/>
<rect x="355.5" y="279.5" width="19" height="30" stroke="white" stroke-width="5"/>
<rect x="382.5" y="279.5" width="18" height="30" stroke="white" stroke-width="5"/>
<rect x="353" y="260" width="50" height="37" rx="10" fill="#EB9262"/>
<circle cx="355.576" cy="272.161" r="12.3575" fill="white"/>
<circle cx="404.092" cy="272.161" r="12.3575" fill="white"/>
<path d="M377.835 214C388.127 214 396.787 222.716 396.787 233.867C396.787 245.018 388.127 253.735 377.835 253.735C367.543 253.735 358.883 245.018 358.883 233.867C358.883 222.716 367.543 214 377.835 214Z" fill="#EB9262" stroke="white" stroke-width="10"/>
<line x1="282.141" y1="195.079" x2="250.34" y2="140" stroke="#EB9262" stroke-width="20"/>
<line x1="506.359" y1="140.04" x2="474.559" y2="195.119" stroke="#EB9262" stroke-width="20"/>
<path d="M150.878 155.367C152.021 153.311 154.979 153.311 156.122 155.367L265.263 351.793C266.374 353.793 264.927 356.25 262.64 356.25H44.3604C42.0729 356.25 40.6264 353.793 41.7373 351.793L150.878 155.367Z" stroke="white" stroke-width="22"/>
<circle cx="46.5" cy="236.5" r="40.5" fill="white"/>
<circle cx="264.5" cy="236.5" r="40.5" fill="white"/>
<path d="M155.5 11C192.394 11 223 42.1714 223 81.5C223 120.829 192.394 152 155.5 152C118.606 152 88 120.829 88 81.5C88 42.1714 118.606 11 155.5 11Z" stroke="white" stroke-width="22"/>
<path d="M111 82C111 140.496 201.328 143.485 199.985 82" stroke="white" stroke-width="13"/>
<path d="M304.543 147.46C268.682 149.186 202.338 132.51 223.844 52" stroke="white" stroke-width="13"/>
<path d="M89.7065 45.9991C97.3733 81.0728 91.9655 149.267 9 141.453" stroke="white" stroke-width="13"/>
<rect x="83.5977" y="142" width="29.5532" height="57.5089" rx="14.7766" transform="rotate(33.3316 83.5977 142)" fill="#DC8D2D"/>
<rect x="97.6484" y="168.685" width="6.0089" height="23.5677" rx="3.00445" transform="rotate(124.257 97.6484 168.685)" fill="#F1CEA3"/>
<rect x="89.6172" y="182.114" width="5.63362" height="23.5677" rx="2.81681" transform="rotate(124.257 89.6172 182.114)" fill="#F1CEA3"/>
<rect x="95.2109" y="156.424" width="29.5532" height="57.5089" rx="14.7766" transform="rotate(10.8955 95.2109 156.424)" fill="#DC8D2D"/>
<rect x="118.223" y="176.482" width="5.23781" height="23.5677" rx="2.6189" transform="rotate(101.821 118.223 176.482)" fill="#F1CEA3"/>
<rect x="117.406" y="184.865" width="12.1112" height="23.5677" rx="6.05559" transform="rotate(101.821 117.406 184.865)" fill="#F1CEA3"/>
<rect x="114.512" y="200.175" width="12.1112" height="23.5677" rx="6.05559" transform="rotate(101.821 114.512 200.175)" fill="#F1CEA3"/>
<rect x="129.211" y="142.424" width="29.5532" height="57.5089" rx="14.7766" transform="rotate(10.8955 129.211 142.424)" fill="#DC8D2D"/>
<rect x="152.258" y="162.315" width="5.40884" height="23.5677" rx="2.70442" transform="rotate(101.821 152.258 162.315)" fill="#F1CEA3"/>
<rect x="150.078" y="177.215" width="5.62399" height="23.5677" rx="2.81199" transform="rotate(101.821 150.078 177.215)" fill="#F1CEA3"/>
<rect x="148.512" y="186.175" width="12.1112" height="23.5677" rx="6.05559" transform="rotate(101.821 148.512 186.175)" fill="#F1CEA3"/>
<rect x="141.617" y="167.962" width="29.5532" height="57.5089" rx="14.7766" transform="rotate(-35.094 141.617 167.962)" fill="#DC8D2D"/>
<rect x="168.172" y="159.661" width="5.37573" height="23.5677" rx="2.68786" transform="rotate(55.831 168.172 159.661)" fill="#F1CEA3"/>
<rect x="177.496" y="171.757" width="4.67012" height="23.5677" rx="2.33506" transform="rotate(55.831 177.496 171.757)" fill="#F1CEA3"/>
<rect x="186.496" y="184.478" width="12.1112" height="23.5677" rx="6.05559" transform="rotate(55.831 186.496 184.478)" fill="#F1CEA3"/>
<rect x="180.605" y="148.638" width="29.5532" height="57.5089" rx="14.7766" transform="rotate(12.8548 180.605 148.638)" fill="#DC8D2D"/>
<rect x="204.559" y="162.796" width="5.13686" height="23.5677" rx="2.56843" transform="rotate(103.78 204.559 162.796)" fill="#F1CEA3"/>
<rect x="201.816" y="177.822" width="4.61802" height="23.5677" rx="2.30901" transform="rotate(103.78 201.816 177.822)" fill="#F1CEA3"/>
<rect x="198.402" y="193.024" width="12.1112" height="23.5677" rx="6.05559" transform="rotate(103.78 198.402 193.024)" fill="#F1CEA3"/>
<rect x="192.445" y="171.38" width="29.5532" height="57.5089" rx="14.7766" transform="rotate(-11.4074 192.445 171.38)" fill="#DC8D2D"/>
<rect x="220.098" y="174.446" width="4.20337" height="23.5677" rx="2.10168" transform="rotate(79.5175 220.098 174.446)" fill="#F1CEA3"/>
<rect x="223.777" y="189.269" width="12.1112" height="23.5677" rx="6.05559" transform="rotate(79.5175 223.777 189.269)" fill="#F1CEA3"/>
<rect x="226.91" y="204.533" width="12.1112" height="23.5677" rx="6.05559" transform="rotate(79.5175 226.91 204.533)" fill="#F1CEA3"/>
<rect x="206.445" y="144.38" width="29.5532" height="57.5089" rx="14.7766" transform="rotate(-11.4074 206.445 144.38)" fill="#DC8D2D"/>
<rect x="234.703" y="150.715" width="5.72042" height="23.5677" rx="2.86021" transform="rotate(79.5175 234.703 150.715)" fill="#F1CEA3"/>
<rect x="238.098" y="164.008" width="5.58476" height="23.5677" rx="2.79238" transform="rotate(79.5175 238.098 164.008)" fill="#F1CEA3"/>
<rect x="240.91" y="177.533" width="12.1112" height="23.5677" rx="6.05559" transform="rotate(79.5175 240.91 177.533)" fill="#F1CEA3"/>
<rect x="240.93" y="157.166" width="29.5532" height="57.5089" rx="14.7766" transform="rotate(37.262 240.93 157.166)" fill="#DC8D2D"/>
<rect x="256.891" y="179.955" width="6.13339" height="23.5677" rx="3.06669" transform="rotate(128.187 256.891 179.955)" fill="#F1CEA3"/>
<rect x="251.316" y="186.57" width="6.13339" height="23.5677" rx="3.06669" transform="rotate(128.187 251.316 186.57)" fill="#F1CEA3"/>
<rect x="238.793" y="204.938" width="12.1112" height="23.5677" rx="6.05559" transform="rotate(128.187 238.793 204.938)" fill="#F1CEA3"/>
<rect x="102.301" y="177.398" width="29.5532" height="57.5089" rx="14.7766" transform="rotate(-31.7747 102.301 177.398)" fill="#DC8D2D"/>
<rect x="129.293" y="170.648" width="5.87618" height="23.5677" rx="2.93809" transform="rotate(59.1502 129.293 170.648)" fill="#F1CEA3"/>
<rect x="137.902" y="183.264" width="12.1112" height="23.5677" rx="6.05559" transform="rotate(59.1502 137.902 183.264)" fill="#F1CEA3"/>
<rect x="146.148" y="196.484" width="12.1112" height="23.5677" rx="6.05559" transform="rotate(59.1502 146.148 196.484)" fill="#F1CEA3"/>
<line x1="55.2421" y1="194.04" x2="23.4419" y2="138.96" stroke="#EB9262" stroke-width="20"/>
<line x1="279.461" y1="139" x2="247.661" y2="194.079" stroke="#EB9262" stroke-width="20"/>
<rect x="42" y="181" width="218" height="159" rx="10" fill="#EB9262"/>
<path d="M144.285 256.86C147.145 251.728 154.528 251.728 157.388 256.86L180.927 299.091C183.713 304.09 180.099 310.242 174.376 310.243H127.297C121.574 310.242 117.96 304.09 120.746 299.091L144.285 256.86Z" stroke="white" stroke-width="5"/>
<rect x="126" y="260" width="50" height="37" rx="10" fill="#EB9262"/>
<circle cx="128.576" cy="272.161" r="12.3575" fill="white"/>
<circle cx="177.092" cy="272.161" r="12.3575" fill="white"/>
<path d="M150.835 214C161.127 214 169.787 222.716 169.787 233.867C169.787 245.018 161.127 253.735 150.835 253.735C140.543 253.735 131.883 245.018 131.883 233.867C131.883 222.716 140.543 214 150.835 214Z" fill="#EB9262" stroke="white" stroke-width="10"/>
</svg>
