<svg width="91" height="114" viewBox="0 0 91 114" fill="none" xmlns="http://www.w3.org/2000/svg">
<path d="M45.5 57C48.6281 57 51.306 55.8837 53.5336 53.6512C55.7612 51.4187 56.875 48.735 56.875 45.6C56.875 42.465 55.7612 39.7812 53.5336 37.5487C51.306 35.3162 48.6281 34.2 45.5 34.2C42.3719 34.2 39.694 35.3162 37.4664 37.5487C35.2388 39.7812 34.125 42.465 34.125 45.6C34.125 48.735 35.2388 51.4187 37.4664 53.6512C39.694 55.8837 42.3719 57 45.5 57ZM45.5 98.895C57.0646 88.255 65.6432 78.5887 71.2359 69.8962C76.8286 61.2037 79.625 53.485 79.625 46.74C79.625 36.385 76.331 27.9062 69.743 21.3037C63.1549 14.7012 55.074 11.4 45.5 11.4C35.926 11.4 27.8451 14.7012 21.257 21.3037C14.669 27.9062 11.375 36.385 11.375 46.74C11.375 53.485 14.1714 61.2037 19.7641 69.8962C25.3568 78.5887 33.9354 88.255 45.5 98.895ZM45.5 114C30.2385 100.985 18.8398 88.8962 11.3039 77.7337C3.76797 66.5712 0 56.24 0 46.74C0 32.49 4.5737 21.1375 13.7211 12.6825C22.8685 4.2275 33.4615 0 45.5 0C57.5385 0 68.1315 4.2275 77.2789 12.6825C86.4263 21.1375 91 32.49 91 46.74C91 56.24 87.232 66.5712 79.6961 77.7337C72.1602 88.8962 60.7615 100.985 45.5 114Z" fill="black"/>
</svg>
